<svg xmlns="http://www.w3.org/2000/svg" viewBox="0 0 24 24" width="24" height="24" color="#000000" fill="none">
    <defs />
    <path fill="#141B34" d="M3.361,20.64 C1.75,19.03 1.75,16.681 1.75,12 C1.75,7.319 1.75,4.969 3.361,3.359 C4.971,1.75 7.32,1.75 12,1.75 L12,1.75 C16.68,1.75 19.029,1.75 20.639,3.36 C22.25,4.97 22.25,7.319 22.25,12 C22.25,16.681 22.25,19.031 20.639,20.641 C19.028,22.25 16.68,22.25 12,22.25 C7.32,22.25 4.971,22.25 3.361,20.64 Z M12,3.25 C7.734,3.25 5.593,3.25 4.421,4.421 C3.25,5.591 3.25,7.733 3.25,12 C3.25,16.267 3.25,18.409 4.421,19.579 C5.521,20.679 7.479,20.746 11.251,20.75 L11.296,14.75 L10.082,14.75 C9.668,14.75 9.332,14.414 9.332,14 C9.332,13.586 9.668,13.25 10.082,13.25 L11.307,13.25 L11.332,9.904 C11.342,8.457 12.531,7.28 13.982,7.28 L16.926,7.28 C17.34,7.28 17.676,7.616 17.676,8.03 C17.676,8.444 17.34,8.78 16.926,8.78 L13.982,8.78 C13.352,8.78 12.836,9.289 12.832,9.915 L12.807,13.25 L14.885,13.25 C15.299,13.25 15.635,13.586 15.635,14 C15.635,14.414 15.299,14.75 14.885,14.75 L12.796,14.75 L12.751,20.75 C16.521,20.746 18.478,20.679 19.579,19.579 C20.75,18.409 20.75,16.267 20.75,12 C20.75,7.733 20.75,5.591 19.579,4.421 C18.408,3.25 16.266,3.25 12,3.25 Z" />
</svg>